{
	"asset":{
		"generator":"Khronos glTF Blender I/O v3.6.27",
		"version":"2.0"
	},
	"scene":0,
	"scenes":[
		{
			"name":"Scene",
			"nodes":[
				0
			]
		}
	],
	"nodes":[
		{
			"mesh":0,
			"name":"Ramen Bowl",
			"rotation":[
				0.014603336341679096,
				0.02178693749010563,
				-0.03614465519785881,
				0.9990023374557495
			],
			"scale":[
				0.3617761731147766,
				0.361776202917099,
				0.3617761731147766
			],
			"translation":[
				0.21411064267158508,
				0.06869552284479141,
				0.10252245515584946
			]
		}
	],
	"materials":[
		{
			"doubleSided":true,
			"name":"Noodle",
			"pbrMetallicRoughness":{
				"baseColorFactor":[
					0.8879232406616211,
					0.31398868560791016,
					0.015208516269922256,
					1
				],
				"metallicFactor":0,
				"roughnessFactor":0.5
			}
		},
		{
			"doubleSided":true,
			"name":"Bowl",
			"pbrMetallicRoughness":{
				"baseColorFactor":[
					0.9822506308555603,
					0.9822506308555603,
					0.8796224594116211,
					1
				],
				"metallicFactor":0,
				"roughnessFactor":0.5
			}
		},
		{
			"doubleSided":true,
			"name":"Bowl Highlight",
			"pbrMetallicRoughness":{
				"baseColorFactor":[
					0.23074008524417877,
					0.539479672908783,
					0.4620770215988159,
					1
				],
				"metallicFactor":0,
				"roughnessFactor":0.5
			}
		},
		{
			"doubleSided":true,
			"name":"Broth",
			"pbrMetallicRoughness":{
				"baseColorFactor":[
					0.4396572709083557,
					0.07618540525436401,
					0.0024282161612063646,
					1
				],
				"metallicFactor":0,
				"roughnessFactor":0.5
			}
		},
		{
			"doubleSided":true,
			"name":"Chashu",
			"pbrMetallicRoughness":{
				"baseColorFactor":[
					0.973445475101471,
					0.42326778173446655,
					0.25818291306495667,
					1
				],
				"metallicFactor":0,
				"roughnessFactor":0.5
			}
		},
		{
			"doubleSided":true,
			"name":"Chashu Crust",
			"pbrMetallicRoughness":{
				"baseColorFactor":[
					0.29613831639289856,
					0.0284260381013155,
					0.0018211614806205034,
					1
				],
				"metallicFactor":0,
				"roughnessFactor":0.5
			}
		},
		{
			"doubleSided":true,
			"name":"Egg",
			"pbrMetallicRoughness":{
				"baseColorFactor":[
					0.9822506308555603,
					0.8796224594116211,
					0.47932031750679016,
					1
				],
				"metallicFactor":0,
				"roughnessFactor":0.5
			}
		},
		{
			"doubleSided":true,
			"name":"Egg Yolk",
			"pbrMetallicRoughness":{
				"baseColorFactor":[
					0.9822506308555603,
					0.428690642118454,
					0.024157634004950523,
					1
				],
				"metallicFactor":0,
				"roughnessFactor":0.5
			}
		},
		{
			"doubleSided":true,
			"name":"Chopstick",
			"pbrMetallicRoughness":{
				"baseColorFactor":[
					0.33716365694999695,
					0.049706559628248215,
					0.004776954650878906,
					1
				],
				"metallicFactor":0,
				"roughnessFactor":0.5
			}
		},
		{
			"doubleSided":true,
			"name":"Fishcake",
			"pbrMetallicRoughness":{
				"baseColorFactor":[
					0.9911022186279297,
					0.6795426607131958,
					0.2874409258365631,
					1
				],
				"metallicFactor":0,
				"roughnessFactor":0.5
			}
		},
		{
			"doubleSided":true,
			"name":"Scallions",
			"pbrMetallicRoughness":{
				"baseColorFactor":[
					0.3049874007701874,
					0.42326778173446655,
					0.027320899069309235,
					1
				],
				"metallicFactor":0,
				"roughnessFactor":0.5
			}
		}
	],
	"meshes":[
		{
			"name":"BezierCurve",
			"primitives":[
				{
					"attributes":{
						"POSITION":0,
						"NORMAL":1,
						"TEXCOORD_0":2
					},
					"indices":3,
					"material":0
				},
				{
					"attributes":{
						"POSITION":4,
						"NORMAL":5,
						"TEXCOORD_0":6
					},
					"indices":7,
					"material":1
				},
				{
					"attributes":{
						"POSITION":8,
						"NORMAL":9,
						"TEXCOORD_0":10
					},
					"indices":11,
					"material":2
				},
				{
					"attributes":{
						"POSITION":12,
						"NORMAL":13,
						"TEXCOORD_0":14
					},
					"indices":15,
					"material":3
				},
				{
					"attributes":{
						"POSITION":16,
						"NORMAL":17,
						"TEXCOORD_0":18
					},
					"indices":19,
					"material":4
				},
				{
					"attributes":{
						"POSITION":20,
						"NORMAL":21,
						"TEXCOORD_0":22
					},
					"indices":23,
					"material":5
				},
				{
					"attributes":{
						"POSITION":24,
						"NORMAL":25,
						"TEXCOORD_0":26
					},
					"indices":27,
					"material":6
				},
				{
					"attributes":{
						"POSITION":28,
						"NORMAL":29,
						"TEXCOORD_0":30
					},
					"indices":31,
					"material":7
				},
				{
					"attributes":{
						"POSITION":32,
						"NORMAL":33,
						"TEXCOORD_0":34
					},
					"indices":35,
					"material":8
				},
				{
					"attributes":{
						"POSITION":36,
						"NORMAL":37,
						"TEXCOORD_0":38
					},
					"indices":39,
					"material":9
				},
				{
					"attributes":{
						"POSITION":40,
						"NORMAL":41,
						"TEXCOORD_0":42
					},
					"indices":43,
					"material":10
				}
			]
		}
	],
	"accessors":[
		{
			"bufferView":0,
			"componentType":5126,
			"count":1376,
			"max":[
				0.9405456781387329,
				0.15279223024845123,
				0.6798064112663269
			],
			"min":[
				-0.8677266836166382,
				-0.3354560136795044,
				-1.0963952541351318
			],
			"type":"VEC3"
		},
		{
			"bufferView":1,
			"componentType":5126,
			"count":1376,
			"type":"VEC3"
		},
		{
			"bufferView":2,
			"componentType":5126,
			"count":1376,
			"type":"VEC2"
		},
		{
			"bufferView":3,
			"componentType":5123,
			"count":7272,
			"type":"SCALAR"
		},
		{
			"bufferView":4,
			"componentType":5126,
			"count":769,
			"max":[
				1.8648152351379395,
				0.7421523332595825,
				2.1566061973571777
			],
			"min":[
				-3.080047130584717,
				-1.2732359170913696,
				-2.799105405807495
			],
			"type":"VEC3"
		},
		{
			"bufferView":5,
			"componentType":5126,
			"count":769,
			"type":"VEC3"
		},
		{
			"bufferView":6,
			"componentType":5126,
			"count":769,
			"type":"VEC2"
		},
		{
			"bufferView":7,
			"componentType":5123,
			"count":4080,
			"type":"SCALAR"
		},
		{
			"bufferView":8,
			"componentType":5126,
			"count":243,
			"max":[
				2.0330536365509033,
				0.8270172476768494,
				2.3337244987487793
			],
			"min":[
				-3.2780134677886963,
				0.18115569651126862,
				-2.9889955520629883
			],
			"type":"VEC3"
		},
		{
			"bufferView":9,
			"componentType":5126,
			"count":243,
			"type":"VEC3"
		},
		{
			"bufferView":10,
			"componentType":5126,
			"count":243,
			"type":"VEC2"
		},
		{
			"bufferView":11,
			"componentType":5123,
			"count":960,
			"type":"SCALAR"
		},
		{
			"bufferView":12,
			"componentType":5126,
			"count":80,
			"max":[
				1.2345516681671143,
				0.10207338631153107,
				1.5063167810440063
			],
			"min":[
				-2.385287284851074,
				-0.2184218019247055,
				-2.1208391189575195
			],
			"type":"VEC3"
		},
		{
			"bufferView":13,
			"componentType":5126,
			"count":80,
			"type":"VEC3"
		},
		{
			"bufferView":14,
			"componentType":5126,
			"count":80,
			"type":"VEC2"
		},
		{
			"bufferView":15,
			"componentType":5123,
			"count":414,
			"type":"SCALAR"
		},
		{
			"bufferView":16,
			"componentType":5126,
			"count":870,
			"max":[
				1.3598296642303467,
				0.8374022245407104,
				2.0720443725585938
			],
			"min":[
				-2.6423087120056152,
				-0.983098566532135,
				-0.020385324954986572
			],
			"type":"VEC3"
		},
		{
			"bufferView":17,
			"componentType":5126,
			"count":870,
			"type":"VEC3"
		},
		{
			"bufferView":18,
			"componentType":5126,
			"count":870,
			"type":"VEC2"
		},
		{
			"bufferView":19,
			"componentType":5123,
			"count":4752,
			"type":"SCALAR"
		},
		{
			"bufferView":20,
			"componentType":5126,
			"count":837,
			"max":[
				1.3598296642303467,
				0.8615261316299438,
				2.0703577995300293
			],
			"min":[
				-2.6423087120056152,
				-0.983098566532135,
				-0.028918206691741943
			],
			"type":"VEC3"
		},
		{
			"bufferView":21,
			"componentType":5126,
			"count":837,
			"type":"VEC3"
		},
		{
			"bufferView":22,
			"componentType":5126,
			"count":837,
			"type":"VEC2"
		},
		{
			"bufferView":23,
			"componentType":5123,
			"count":4032,
			"type":"SCALAR"
		},
		{
			"bufferView":24,
			"componentType":5126,
			"count":936,
			"max":[
				-0.7775910496711731,
				0.17718568444252014,
				0.8581367135047913
			],
			"min":[
				-2.077202081680298,
				-0.5561146140098572,
				-1.4728686809539795
			],
			"type":"VEC3"
		},
		{
			"bufferView":25,
			"componentType":5126,
			"count":936,
			"type":"VEC3"
		},
		{
			"bufferView":26,
			"componentType":5126,
			"count":936,
			"type":"VEC2"
		},
		{
			"bufferView":27,
			"componentType":5123,
			"count":5040,
			"type":"SCALAR"
		},
		{
			"bufferView":28,
			"componentType":5126,
			"count":242,
			"max":[
				-0.9097630381584167,
				0.11206357181072235,
				0.5549134612083435
			],
			"min":[
				-1.7218917608261108,
				-0.08130490779876709,
				-1.128869891166687
			],
			"type":"VEC3"
		},
		{
			"bufferView":29,
			"componentType":5126,
			"count":242,
			"type":"VEC3"
		},
		{
			"bufferView":30,
			"componentType":5126,
			"count":242,
			"type":"VEC2"
		},
		{
			"bufferView":31,
			"componentType":5123,
			"count":1296,
			"type":"SCALAR"
		},
		{
			"bufferView":32,
			"componentType":5126,
			"count":152,
			"max":[
				-0.7657361626625061,
				1.5593067407608032,
				-0.12424413859844208
			],
			"min":[
				-4.770718574523926,
				-0.732187032699585,
				-0.7378640174865723
			],
			"type":"VEC3"
		},
		{
			"bufferView":33,
			"componentType":5126,
			"count":152,
			"type":"VEC3"
		},
		{
			"bufferView":34,
			"componentType":5126,
			"count":152,
			"type":"VEC2"
		},
		{
			"bufferView":35,
			"componentType":5123,
			"count":648,
			"type":"SCALAR"
		},
		{
			"bufferView":36,
			"componentType":5126,
			"count":648,
			"max":[
				0.6959898471832275,
				0.18630002439022064,
				-0.7448104619979858
			],
			"min":[
				-1.311900019645691,
				-0.4728797674179077,
				-1.9305758476257324
			],
			"type":"VEC3"
		},
		{
			"bufferView":37,
			"componentType":5126,
			"count":648,
			"type":"VEC3"
		},
		{
			"bufferView":38,
			"componentType":5126,
			"count":648,
			"type":"VEC2"
		},
		{
			"bufferView":39,
			"componentType":5123,
			"count":3048,
			"type":"SCALAR"
		},
		{
			"bufferView":40,
			"componentType":5126,
			"count":572,
			"max":[
				0.7897865176200867,
				0.15779653191566467,
				0.6120774149894714
			],
			"min":[
				-0.651286780834198,
				-0.22840791940689087,
				-0.7203570604324341
			],
			"type":"VEC3"
		},
		{
			"bufferView":41,
			"componentType":5126,
			"count":572,
			"type":"VEC3"
		},
		{
			"bufferView":42,
			"componentType":5126,
			"count":572,
			"type":"VEC2"
		},
		{
			"bufferView":43,
			"componentType":5123,
			"count":2112,
			"type":"SCALAR"
		}
	],
	"bufferViews":[
		{
			"buffer":0,
			"byteLength":16512,
			"byteOffset":0,
			"target":34962
		},
		{
			"buffer":0,
			"byteLength":16512,
			"byteOffset":16512,
			"target":34962
		},
		{
			"buffer":0,
			"byteLength":11008,
			"byteOffset":33024,
			"target":34962
		},
		{
			"buffer":0,
			"byteLength":14544,
			"byteOffset":44032,
			"target":34963
		},
		{
			"buffer":0,
			"byteLength":9228,
			"byteOffset":58576,
			"target":34962
		},
		{
			"buffer":0,
			"byteLength":9228,
			"byteOffset":67804,
			"target":34962
		},
		{
			"buffer":0,
			"byteLength":6152,
			"byteOffset":77032,
			"target":34962
		},
		{
			"buffer":0,
			"byteLength":8160,
			"byteOffset":83184,
			"target":34963
		},
		{
			"buffer":0,
			"byteLength":2916,
			"byteOffset":91344,
			"target":34962
		},
		{
			"buffer":0,
			"byteLength":2916,
			"byteOffset":94260,
			"target":34962
		},
		{
			"buffer":0,
			"byteLength":1944,
			"byteOffset":97176,
			"target":34962
		},
		{
			"buffer":0,
			"byteLength":1920,
			"byteOffset":99120,
			"target":34963
		},
		{
			"buffer":0,
			"byteLength":960,
			"byteOffset":101040,
			"target":34962
		},
		{
			"buffer":0,
			"byteLength":960,
			"byteOffset":102000,
			"target":34962
		},
		{
			"buffer":0,
			"byteLength":640,
			"byteOffset":102960,
			"target":34962
		},
		{
			"buffer":0,
			"byteLength":828,
			"byteOffset":103600,
			"target":34963
		},
		{
			"buffer":0,
			"byteLength":10440,
			"byteOffset":104428,
			"target":34962
		},
		{
			"buffer":0,
			"byteLength":10440,
			"byteOffset":114868,
			"target":34962
		},
		{
			"buffer":0,
			"byteLength":6960,
			"byteOffset":125308,
			"target":34962
		},
		{
			"buffer":0,
			"byteLength":9504,
			"byteOffset":132268,
			"target":34963
		},
		{
			"buffer":0,
			"byteLength":10044,
			"byteOffset":141772,
			"target":34962
		},
		{
			"buffer":0,
			"byteLength":10044,
			"byteOffset":151816,
			"target":34962
		},
		{
			"buffer":0,
			"byteLength":6696,
			"byteOffset":161860,
			"target":34962
		},
		{
			"buffer":0,
			"byteLength":8064,
			"byteOffset":168556,
			"target":34963
		},
		{
			"buffer":0,
			"byteLength":11232,
			"byteOffset":176620,
			"target":34962
		},
		{
			"buffer":0,
			"byteLength":11232,
			"byteOffset":187852,
			"target":34962
		},
		{
			"buffer":0,
			"byteLength":7488,
			"byteOffset":199084,
			"target":34962
		},
		{
			"buffer":0,
			"byteLength":10080,
			"byteOffset":206572,
			"target":34963
		},
		{
			"buffer":0,
			"byteLength":2904,
			"byteOffset":216652,
			"target":34962
		},
		{
			"buffer":0,
			"byteLength":2904,
			"byteOffset":219556,
			"target":34962
		},
		{
			"buffer":0,
			"byteLength":1936,
			"byteOffset":222460,
			"target":34962
		},
		{
			"buffer":0,
			"byteLength":2592,
			"byteOffset":224396,
			"target":34963
		},
		{
			"buffer":0,
			"byteLength":1824,
			"byteOffset":226988,
			"target":34962
		},
		{
			"buffer":0,
			"byteLength":1824,
			"byteOffset":228812,
			"target":34962
		},
		{
			"buffer":0,
			"byteLength":1216,
			"byteOffset":230636,
			"target":34962
		},
		{
			"buffer":0,
			"byteLength":1296,
			"byteOffset":231852,
			"target":34963
		},
		{
			"buffer":0,
			"byteLength":7776,
			"byteOffset":233148,
			"target":34962
		},
		{
			"buffer":0,
			"byteLength":7776,
			"byteOffset":240924,
			"target":34962
		},
		{
			"buffer":0,
			"byteLength":5184,
			"byteOffset":248700,
			"target":34962
		},
		{
			"buffer":0,
			"byteLength":6096,
			"byteOffset":253884,
			"target":34963
		},
		{
			"buffer":0,
			"byteLength":6864,
			"byteOffset":259980,
			"target":34962
		},
		{
			"buffer":0,
			"byteLength":6864,
			"byteOffset":266844,
			"target":34962
		},
		{
			"buffer":0,
			"byteLength":4576,
			"byteOffset":273708,
			"target":34962
		},
		{
			"buffer":0,
			"byteLength":4224,
			"byteOffset":278284,
			"target":34963
		}
	],
	"buffers":[
		{
			"byteLength":282508,
			"uri":"RamenBowl.bin"
		}
	]
}
