{
	"asset":{
		"generator":"Khronos glTF Blender I/O v3.6.27",
		"version":"2.0"
	},
	"scene":0,
	"scenes":[
		{
			"name":"Scene",
			"nodes":[
				0
			]
		}
	],
	"nodes":[
		{
			"mesh":0,
			"name":"Scene.001",
			"rotation":[
				0.014603336341679096,
				0.02178693749010563,
				-0.03614465519785881,
				0.9990023374557495
			],
			"scale":[
				0.3617761731147766,
				0.361776202917099,
				0.3617761731147766
			],
			"translation":[
				0.21411064267158508,
				0.06869552284479141,
				0.10252245515584946
			]
		}
	],
	"materials":[
		{
			"doubleSided":true,
			"name":"wood-leg",
			"pbrMetallicRoughness":{
				"baseColorTexture":{
					"index":0
				},
				"metallicFactor":0,
				"roughnessFactor":0.9090909957885742
			}
		},
		{
			"doubleSided":true,
			"name":"wood-top",
			"pbrMetallicRoughness":{
				"baseColorTexture":{
					"index":1
				},
				"metallicFactor":0,
				"roughnessFactor":0.9045453071594238
			}
		}
	],
	"meshes":[
		{
			"name":"BezierCurve.001",
			"primitives":[
				{
					"attributes":{
						"POSITION":0,
						"NORMAL":1,
						"TEXCOORD_0":2
					},
					"indices":3,
					"material":0
				},
				{
					"attributes":{
						"POSITION":4,
						"NORMAL":5,
						"TEXCOORD_0":6
					},
					"indices":7,
					"material":1
				}
			]
		}
	],
	"textures":[
		{
			"sampler":0,
			"source":0
		},
		{
			"sampler":0,
			"source":1
		}
	],
	"images":[
		{
			"mimeType":"image/png",
			"name":"tableleg_albedo",
			"uri":"tableleg_albedo.png"
		},
		{
			"mimeType":"image/png",
			"name":"tabletop_albedo",
			"uri":"tabletop_albedo.png"
		}
	],
	"accessors":[
		{
			"bufferView":0,
			"componentType":5126,
			"count":168,
			"max":[
				7.8081231117248535,
				-1.5919394493103027,
				4.358513832092285
			],
			"min":[
				-8.213232040405273,
				-9.75639533996582,
				-4.675537109375
			],
			"type":"VEC3"
		},
		{
			"bufferView":1,
			"componentType":5126,
			"count":168,
			"type":"VEC3"
		},
		{
			"bufferView":2,
			"componentType":5126,
			"count":168,
			"type":"VEC2"
		},
		{
			"bufferView":3,
			"componentType":5123,
			"count":528,
			"type":"SCALAR"
		},
		{
			"bufferView":4,
			"componentType":5126,
			"count":102,
			"max":[
				9.069808006286621,
				-0.37112629413604736,
				5.799582004547119
			],
			"min":[
				-9.976544380187988,
				-3.082150936126709,
				-6.253597736358643
			],
			"type":"VEC3"
		},
		{
			"bufferView":5,
			"componentType":5126,
			"count":102,
			"type":"VEC3"
		},
		{
			"bufferView":6,
			"componentType":5126,
			"count":102,
			"type":"VEC2"
		},
		{
			"bufferView":7,
			"componentType":5123,
			"count":444,
			"type":"SCALAR"
		}
	],
	"bufferViews":[
		{
			"buffer":0,
			"byteLength":2016,
			"byteOffset":0,
			"target":34962
		},
		{
			"buffer":0,
			"byteLength":2016,
			"byteOffset":2016,
			"target":34962
		},
		{
			"buffer":0,
			"byteLength":1344,
			"byteOffset":4032,
			"target":34962
		},
		{
			"buffer":0,
			"byteLength":1056,
			"byteOffset":5376,
			"target":34963
		},
		{
			"buffer":0,
			"byteLength":1224,
			"byteOffset":6432,
			"target":34962
		},
		{
			"buffer":0,
			"byteLength":1224,
			"byteOffset":7656,
			"target":34962
		},
		{
			"buffer":0,
			"byteLength":816,
			"byteOffset":8880,
			"target":34962
		},
		{
			"buffer":0,
			"byteLength":888,
			"byteOffset":9696,
			"target":34963
		}
	],
	"samplers":[
		{
			"magFilter":9729,
			"minFilter":9987
		}
	],
	"buffers":[
		{
			"byteLength":10584,
			"uri":"Table.bin"
		}
	]
}
